<?xml version="1.0" encoding="UTF-8"?>
<svg xmlns="http://www.w3.org/2000/svg"
     width="300" height="600"
     viewBox="220 40 760 1520">
  <style>
    @keyframes sway {
      0%   { transform: translateX(0); }
      25%  { transform: translateX(3px); }
      50%  { transform: translateX(-2px); }
      75%  { transform: translateX(4px); }
      100% { transform: translateX(0); }
    }
    .mini-node { animation: sway 4s ease-in-out infinite; }
    .mini-line { stroke-width: 1.5; fill: none; opacity: 0.5; }
  </style>
  <rect width="100%" height="100%" fill="#0a0a1a" rx="6"/>
  <g class="mini-node">
    <line class="mini-line" stroke="#4ade80" x1="600" y1="60" x2="600" y2="100"/>
    <line class="mini-line" stroke="#4ade80" x1="600" y1="100" x2="600" y2="220"/>
    <path class="mini-line" stroke="#64748b" d="M 600 100 C 600 116, 720 124, 720 140"/>
    <path class="mini-line" stroke="#64748b" d="M 720 140 C 720 172, 600 188, 600 220"/>
    <line class="mini-line" stroke="#4ade80" x1="600" y1="220" x2="600" y2="260"/>
    <line class="mini-line" stroke="#4ade80" x1="600" y1="260" x2="600" y2="300"/>
    <path class="mini-line" stroke="#64748b" d="M 600 260 C 600 292, 480 308, 480 340"/>
    <line class="mini-line" stroke="#4ade80" x1="600" y1="300" x2="600" y2="420"/>
    <path class="mini-line" stroke="#64748b" d="M 480 340 C 480 372, 600 388, 600 420"/>
    <line class="mini-line" stroke="#4ade80" x1="600" y1="420" x2="600" y2="540"/>
    <path class="mini-line" stroke="#64748b" d="M 600 420 C 600 436, 840 444, 840 460"/>
    <path class="mini-line" stroke="#64748b" d="M 840 460 C 840 492, 600 508, 600 540"/>
    <line class="mini-line" stroke="#4ade80" x1="600" y1="540" x2="600" y2="660"/>
    <path class="mini-line" stroke="#64748b" d="M 600 540 C 600 556, 360 564, 360 580"/>
    <path class="mini-line" stroke="#64748b" d="M 360 580 C 360 612, 600 628, 600 660"/>
    <line class="mini-line" stroke="#4ade80" x1="600" y1="660" x2="600" y2="700"/>
    <line class="mini-line" stroke="#4ade80" x1="600" y1="700" x2="600" y2="740"/>
    <line class="mini-line" stroke="#4ade80" x1="600" y1="740" x2="600" y2="780"/>
    <line class="mini-line" stroke="#4ade80" x1="600" y1="780" x2="600" y2="820"/>
    <line class="mini-line" stroke="#4ade80" x1="600" y1="820" x2="600" y2="940"/>
    <path class="mini-line" stroke="#64748b" d="M 600 820 C 600 836, 960 844, 960 860"/>
    <path class="mini-line" stroke="#64748b" d="M 960 860 C 960 892, 600 908, 600 940"/>
    <line class="mini-line" stroke="#4ade80" x1="600" y1="940" x2="600" y2="980"/>
    <line class="mini-line" stroke="#4ade80" x1="600" y1="980" x2="600" y2="1020"/>
    <line class="mini-line" stroke="#4ade80" x1="600" y1="1020" x2="600" y2="1060"/>
    <line class="mini-line" stroke="#4ade80" x1="600" y1="1060" x2="600" y2="1100"/>
    <path class="mini-line" stroke="#64748b" d="M 600 1060 C 600 1092, 240 1108, 240 1140"/>
    <line class="mini-line" stroke="#4ade80" x1="600" y1="1100" x2="600" y2="1220"/>
    <path class="mini-line" stroke="#64748b" d="M 240 1140 C 240 1172, 600 1188, 600 1220"/>
    <line class="mini-line" stroke="#4ade80" x1="600" y1="1220" x2="600" y2="1260"/>
    <line class="mini-line" stroke="#4ade80" x1="600" y1="1260" x2="600" y2="1300"/>
    <line class="mini-line" stroke="#4ade80" x1="600" y1="1300" x2="600" y2="1340"/>
    <line class="mini-line" stroke="#4ade80" x1="600" y1="1340" x2="600" y2="1380"/>
    <line class="mini-line" stroke="#4ade80" x1="600" y1="1380" x2="600" y2="1420"/>
    <line class="mini-line" stroke="#4ade80" x1="600" y1="1420" x2="600" y2="1460"/>
    <line class="mini-line" stroke="#4ade80" x1="600" y1="1460" x2="600" y2="1500"/>
    <line class="mini-line" stroke="#4ade80" x1="600" y1="1500" x2="600" y2="1540"/>
    <circle cx="600" cy="60" r="4" fill="#4ade80" opacity="0.9"/>
    <circle cx="600" cy="100" r="7" fill="#c084fc" opacity="0.9"/>
    <circle cx="720" cy="140" r="4" fill="#4ade80" opacity="0.9"/>
    <circle cx="600" cy="220" r="6" fill="#fb923c" opacity="0.9"/>
    <circle cx="600" cy="260" r="7" fill="#c084fc" opacity="0.9"/>
    <circle cx="600" cy="300" r="4" fill="#4ade80" opacity="0.9"/>
    <circle cx="480" cy="340" r="4" fill="#4ade80" opacity="0.9"/>
    <circle cx="600" cy="420" r="7" fill="#c084fc" opacity="0.9"/>
    <circle cx="840" cy="460" r="4" fill="#4ade80" opacity="0.9"/>
    <circle cx="600" cy="540" r="7" fill="#c084fc" opacity="0.9"/>
    <circle cx="360" cy="580" r="4" fill="#4ade80" opacity="0.9"/>
    <circle cx="600" cy="660" r="6" fill="#fb923c" opacity="0.9"/>
    <circle cx="600" cy="700" r="4" fill="#4ade80" opacity="0.9"/>
    <circle cx="600" cy="740" r="4" fill="#4ade80" opacity="0.9"/>
    <circle cx="600" cy="780" r="4" fill="#4ade80" opacity="0.9"/>
    <circle cx="600" cy="820" r="7" fill="#c084fc" opacity="0.9"/>
    <circle cx="960" cy="860" r="4" fill="#4ade80" opacity="0.9"/>
    <circle cx="600" cy="940" r="6" fill="#fb923c" opacity="0.9"/>
    <circle cx="600" cy="980" r="4" fill="#4ade80" opacity="0.9"/>
    <circle cx="600" cy="1020" r="4" fill="#4ade80" opacity="0.9"/>
    <circle cx="600" cy="1060" r="7" fill="#c084fc" opacity="0.9"/>
    <circle cx="600" cy="1100" r="4" fill="#4ade80" opacity="0.9"/>
    <circle cx="240" cy="1140" r="4" fill="#4ade80" opacity="0.9"/>
    <circle cx="600" cy="1220" r="6" fill="#fb923c" opacity="0.9"/>
    <circle cx="600" cy="1260" r="4" fill="#4ade80" opacity="0.9"/>
    <circle cx="600" cy="1300" r="4" fill="#4ade80" opacity="0.9"/>
    <circle cx="600" cy="1340" r="4" fill="#4ade80" opacity="0.9"/>
    <circle cx="600" cy="1380" r="4" fill="#4ade80" opacity="0.9"/>
    <circle cx="600" cy="1420" r="4" fill="#4ade80" opacity="0.9"/>
    <circle cx="600" cy="1460" r="4" fill="#4ade80" opacity="0.9"/>
    <circle cx="600" cy="1500" r="4" fill="#38bdf8" opacity="0.9"/>
    <circle cx="600" cy="1540" r="4" fill="#4ade80" opacity="0.9"/>
  </g>
</svg>
