<?xml version="1.0" encoding="UTF-8"?>
<svg xmlns="http://www.w3.org/2000/svg" 
     xmlns:xlink="http://www.w3.org/1999/xlink"
     width="1200" height="1460" 
     viewBox="0 0 1200 1460">
  <defs>
    <radialGradient id="leafGradient">
      <stop offset="0%" style="stop-color:#22c55e;stop-opacity:1" />
      <stop offset="100%" style="stop-color:#16a34a;stop-opacity:0.8" />
    </radialGradient>
    <radialGradient id="mergeGradient">
      <stop offset="0%" style="stop-color:#a78bfa;stop-opacity:1" />
      <stop offset="100%" style="stop-color:#7c3aed;stop-opacity:0.8" />
    </radialGradient>
    <radialGradient id="forkGradient">
      <stop offset="0%" style="stop-color:#fb923c;stop-opacity:1" />
      <stop offset="100%" style="stop-color:#ea580c;stop-opacity:0.8" />
    </radialGradient>
    <radialGradient id="tagGradient">
      <stop offset="0%" style="stop-color:#38bdf8;stop-opacity:1" />
      <stop offset="100%" style="stop-color:#0284c7;stop-opacity:0.8" />
    </radialGradient>
    <style>
      .branch-line { stroke: #64748b; stroke-width: 2; fill: none; opacity: 0.7; }
      .trunk-line { stroke: #22c55e; stroke-width: 2.5; fill: none; opacity: 0.6; }
      .commit-leaf { cursor: pointer; }
      .commit-leaf:hover { filter: brightness(1.5); }
      .branch-label { font-family: sans-serif; font-size: 12px; font-weight: bold; fill: #0f172a; }
    </style>
  </defs>
  
  <rect width="1200" height="1460" fill="#f8fafc"/>
  <defs>
    <pattern id="grid" width="100" height="100" patternUnits="userSpaceOnUse">
      <path d="M 100 0 L 0 0 0 100" fill="none" stroke="#e2e8f0" stroke-width="0.5" opacity="0.3"/>
    </pattern>
  </defs>
  <rect width="1200" height="1460" fill="url(#grid)"/>
  
  <!-- Branch connection lines -->
  <g id="branches">
    <line class="trunk-line" x1="600" y1="60" x2="600" y2="100"/>
    <path class="branch-line" d="M 600 60 C 600 92, 720 108, 720 140"/>
    <line class="trunk-line" x1="600" y1="100" x2="600" y2="220"/>
    <path class="branch-line" d="M 720 140 C 720 172, 600 188, 600 220"/>
    <line class="trunk-line" x1="600" y1="220" x2="600" y2="340"/>
    <path class="branch-line" d="M 600 220 C 600 236, 480 244, 480 260"/>
    <path class="branch-line" d="M 480 260 C 480 292, 600 308, 600 340"/>
    <line class="trunk-line" x1="600" y1="340" x2="600" y2="460"/>
    <path class="branch-line" d="M 600 340 C 600 356, 840 364, 840 380"/>
    <path class="branch-line" d="M 840 380 C 840 412, 600 428, 600 460"/>
    <line class="trunk-line" x1="600" y1="460" x2="600" y2="500"/>
    <line class="trunk-line" x1="600" y1="500" x2="600" y2="540"/>
    <line class="trunk-line" x1="600" y1="540" x2="600" y2="580"/>
    <line class="trunk-line" x1="600" y1="580" x2="600" y2="620"/>
    <line class="trunk-line" x1="600" y1="620" x2="600" y2="740"/>
    <path class="branch-line" d="M 600 620 C 600 636, 360 644, 360 660"/>
    <path class="branch-line" d="M 360 660 C 360 692, 600 708, 600 740"/>
    <line class="trunk-line" x1="600" y1="740" x2="600" y2="780"/>
    <line class="trunk-line" x1="600" y1="780" x2="600" y2="820"/>
    <line class="trunk-line" x1="600" y1="820" x2="600" y2="860"/>
    <line class="trunk-line" x1="600" y1="860" x2="600" y2="900"/>
    <path class="branch-line" d="M 600 860 C 600 892, 960 908, 960 940"/>
    <line class="trunk-line" x1="600" y1="900" x2="600" y2="1020"/>
    <path class="branch-line" d="M 960 940 C 960 972, 600 988, 600 1020"/>
    <line class="trunk-line" x1="600" y1="1020" x2="600" y2="1060"/>
    <line class="trunk-line" x1="600" y1="1060" x2="600" y2="1100"/>
    <line class="trunk-line" x1="600" y1="1100" x2="600" y2="1140"/>
    <line class="trunk-line" x1="600" y1="1140" x2="600" y2="1180"/>
    <line class="trunk-line" x1="600" y1="1180" x2="600" y2="1220"/>
    <line class="trunk-line" x1="600" y1="1220" x2="600" y2="1260"/>
    <line class="trunk-line" x1="600" y1="1260" x2="600" y2="1300"/>
    <line class="trunk-line" x1="600" y1="1300" x2="600" y2="1340"/>
  </g>
  <!-- Commit nodes -->
  <g id="commits">
    <circle class="commit-leaf" cx="600" cy="60" r="10" fill="url(#mergeGradient)" stroke="#7c3aed" stroke-width="1.5"><title>64b5ad9: Merge pull request #5 from XAOSTECH:chore/update-submodules-20260406-032120</title></circle>
    <circle class="commit-leaf" cx="600" cy="100" r="6" fill="url(#leafGradient)" stroke="#16a34a" stroke-width="1.5"><title>be810bf: chore: update CHANGELOG for v0.1.0 (re-release)</title></circle>
    <circle class="commit-leaf" cx="720" cy="140" r="6" fill="url(#leafGradient)" stroke="#16a34a" stroke-width="1.5"><title>f75b2d7: chore: update 1 submodule(s) to latest</title></circle>
    <circle class="commit-leaf" cx="600" cy="220" r="10" fill="url(#mergeGradient)" stroke="#7c3aed" stroke-width="1.5"><title>192a282: Merge pull request #4 from XAOSTECH:anglicise/20260401-021212</title></circle>
    <circle class="commit-leaf" cx="480" cy="260" r="6" fill="url(#leafGradient)" stroke="#16a34a" stroke-width="1.5"><title>a422b39: chore: convert American spellings to British English</title></circle>
    <circle class="commit-leaf" cx="600" cy="340" r="10" fill="url(#mergeGradient)" stroke="#7c3aed" stroke-width="1.5"><title>afc97fc: Merge pull request #3 from XAOSTECH:chore/update-submodules-20260330-031919</title></circle>
    <circle class="commit-leaf" cx="840" cy="380" r="6" fill="url(#leafGradient)" stroke="#16a34a" stroke-width="1.5"><title>40a2495: chore: update 1 submodule(s) to latest</title></circle>
    <circle class="commit-leaf" cx="600" cy="460" r="9" fill="url(#forkGradient)" stroke="#ea580c" stroke-width="1.5"><title>7926d8e: chore(dc-init): load workflows,actions</title></circle>
    <circle class="commit-leaf" cx="600" cy="500" r="6" fill="url(#leafGradient)" stroke="#16a34a" stroke-width="1.5"><title>c93967b: chore: update git tree visualisation</title></circle>
    <circle class="commit-leaf" cx="600" cy="540" r="6" fill="url(#leafGradient)" stroke="#16a34a" stroke-width="1.5"><title>1082cbe: chore: update git tree visualisation</title></circle>
    <circle class="commit-leaf" cx="600" cy="580" r="6" fill="url(#leafGradient)" stroke="#16a34a" stroke-width="1.5"><title>958dc12: chore: update CHANGELOG for v0.1.0</title></circle>
    <circle class="commit-leaf" cx="600" cy="620" r="10" fill="url(#mergeGradient)" stroke="#7c3aed" stroke-width="1.5"><title>e1f6b8e: Merge pull request #2 from XAOSTECH:chore/update-submodules-20260321-204419</title></circle>
    <circle class="commit-leaf" cx="360" cy="660" r="6" fill="url(#leafGradient)" stroke="#16a34a" stroke-width="1.5"><title>f0fb49f: chore: update 1 submodule(s) to latest</title></circle>
    <circle class="commit-leaf" cx="600" cy="740" r="9" fill="url(#forkGradient)" stroke="#ea580c" stroke-width="1.5"><title>54e9327: chore(dc-init): update workflows + pin design-flows</title></circle>
    <circle class="commit-leaf" cx="600" cy="780" r="6" fill="url(#leafGradient)" stroke="#16a34a" stroke-width="1.5"><title>4c66e66: chore: vsGen + pin design-flows</title></circle>
    <circle class="commit-leaf" cx="600" cy="820" r="6" fill="url(#leafGradient)" stroke="#16a34a" stroke-width="1.5"><title>f30f18c: chore: update git tree visualisation</title></circle>
    <circle class="commit-leaf" cx="600" cy="860" r="10" fill="url(#mergeGradient)" stroke="#7c3aed" stroke-width="1.5"><title>3a417b7: Merge pull request #1 from XAOSTECH:chore/update-submodules-20260321-190402</title></circle>
    <circle class="commit-leaf" cx="600" cy="900" r="6" fill="url(#leafGradient)" stroke="#16a34a" stroke-width="1.5"><title>d898ec6: chore: update git tree visualisation</title></circle>
    <circle class="commit-leaf" cx="960" cy="940" r="6" fill="url(#leafGradient)" stroke="#16a34a" stroke-width="1.5"><title>152772c: chore: update 1 submodule(s) to latest</title></circle>
    <circle class="commit-leaf" cx="600" cy="1020" r="9" fill="url(#forkGradient)" stroke="#ea580c" stroke-width="1.5"><title>5e9aa68: chore(dc-contain): update container config</title></circle>
    <circle class="commit-leaf" cx="600" cy="1060" r="6" fill="url(#leafGradient)" stroke="#16a34a" stroke-width="1.5"><title>b94d829: chore(dc-init): update workflows + action</title></circle>
    <circle class="commit-leaf" cx="600" cy="1100" r="6" fill="url(#leafGradient)" stroke="#16a34a" stroke-width="1.5"><title>e449e77: chore: add pastel as submodule</title></circle>
    <circle class="commit-leaf" cx="600" cy="1140" r="6" fill="url(#leafGradient)" stroke="#16a34a" stroke-width="1.5"><title>cc380cc: chore: update design-flows with export flag feature</title></circle>
    <circle class="commit-leaf" cx="600" cy="1180" r="6" fill="url(#leafGradient)" stroke="#16a34a" stroke-width="1.5"><title>e9718ed: chore: update submodules</title></circle>
    <circle class="commit-leaf" cx="600" cy="1220" r="6" fill="url(#leafGradient)" stroke="#16a34a" stroke-width="1.5"><title>aec4ec1: chore: README</title></circle>
    <circle class="commit-leaf" cx="600" cy="1260" r="6" fill="url(#leafGradient)" stroke="#16a34a" stroke-width="1.5"><title>cbd50ce: fix(dc-modules): submodule refs</title></circle>
    <circle class="commit-leaf" cx="600" cy="1300" r="6" fill="url(#tagGradient)" stroke="#0284c7" stroke-width="1.5"><title>c3b6948: chore: update CHANGELOG for v0.0.1</title></circle>
    <circle class="commit-leaf" cx="600" cy="1340" r="6" fill="url(#leafGradient)" stroke="#16a34a" stroke-width="1.5"><title>36f7d0e: init + dc-init</title></circle>
  </g>
  
  <!-- Legend -->
  <g id="legend" transform="translate(20, 20)">
    <rect width="200" height="110" fill="white" stroke="#cbd5e1" stroke-width="1" rx="4"/>
    <circle cx="20" cy="25" r="5" fill="url(#leafGradient)" stroke="#16a34a"/>
    <text x="32" y="30" class="branch-label" font-size="12">Regular Commit</text>
    <circle cx="20" cy="50" r="6" fill="url(#mergeGradient)" stroke="#7c3aed"/>
    <text x="32" y="55" class="branch-label" font-size="12">Merge Commit</text>
    <circle cx="20" cy="75" r="6" fill="url(#forkGradient)" stroke="#ea580c"/>
    <text x="32" y="80" class="branch-label" font-size="12">Fork Point</text>
    <circle cx="20" cy="100" r="6" fill="url(#tagGradient)" stroke="#0284c7"/>
    <text x="32" y="105" class="branch-label" font-size="12">Tagged</text>
  </g>
  
  <!-- Repository info -->
  <g id="info" transform="translate(20, 1420)">
    <text x="0" y="0" class="branch-label" font-size="12" fill="#666">
      Repository: design-tools
    </text>
    <text x="0" y="20" class="branch-label" font-size="10" fill="#999">
      Generated: 2026-04-13 03:32:27 UTC
    </text>
  </g>
</svg>
