<?xml version="1.0" encoding="UTF-8"?>
<svg xmlns="http://www.w3.org/2000/svg"
     width="300" height="600"
     viewBox="100 40 1120 2280">
  <style>
    @keyframes sway {
      0%   { transform: translateX(0); }
      25%  { transform: translateX(3px); }
      50%  { transform: translateX(-2px); }
      75%  { transform: translateX(4px); }
      100% { transform: translateX(0); }
    }
    .mini-node { animation: sway 4s ease-in-out infinite; }
    .mini-line { stroke-width: 1.5; fill: none; opacity: 0.5; }
  </style>
  <rect width="100%" height="100%" fill="#0a0a1a" rx="6"/>
  <g class="mini-node">
    <line class="mini-line" stroke="#4ade80" x1="600" y1="60" x2="600" y2="100"/>
    <line class="mini-line" stroke="#4ade80" x1="600" y1="100" x2="600" y2="140"/>
    <line class="mini-line" stroke="#4ade80" x1="600" y1="140" x2="600" y2="180"/>
    <line class="mini-line" stroke="#4ade80" x1="600" y1="180" x2="600" y2="220"/>
    <path class="mini-line" stroke="#64748b" d="M 600 180 C 600 212, 720 228, 720 260"/>
    <line class="mini-line" stroke="#4ade80" x1="600" y1="220" x2="600" y2="340"/>
    <path class="mini-line" stroke="#64748b" d="M 720 260 C 720 292, 600 308, 600 340"/>
    <line class="mini-line" stroke="#4ade80" x1="600" y1="340" x2="600" y2="380"/>
    <line class="mini-line" stroke="#4ade80" x1="600" y1="380" x2="600" y2="420"/>
    <path class="mini-line" stroke="#64748b" d="M 600 380 C 600 412, 480 428, 480 460"/>
    <line class="mini-line" stroke="#4ade80" x1="600" y1="420" x2="600" y2="540"/>
    <path class="mini-line" stroke="#64748b" d="M 480 460 C 480 492, 600 508, 600 540"/>
    <line class="mini-line" stroke="#4ade80" x1="600" y1="540" x2="600" y2="580"/>
    <line class="mini-line" stroke="#4ade80" x1="600" y1="580" x2="600" y2="620"/>
    <line class="mini-line" stroke="#4ade80" x1="600" y1="620" x2="600" y2="660"/>
    <path class="mini-line" stroke="#64748b" d="M 600 620 C 600 652, 840 668, 840 700"/>
    <line class="mini-line" stroke="#4ade80" x1="600" y1="660" x2="600" y2="780"/>
    <path class="mini-line" stroke="#64748b" d="M 840 700 C 840 732, 600 748, 600 780"/>
    <line class="mini-line" stroke="#4ade80" x1="600" y1="780" x2="600" y2="820"/>
    <line class="mini-line" stroke="#4ade80" x1="600" y1="820" x2="600" y2="860"/>
    <line class="mini-line" stroke="#4ade80" x1="600" y1="860" x2="600" y2="980"/>
    <path class="mini-line" stroke="#64748b" d="M 600 860 C 600 876, 360 884, 360 900"/>
    <path class="mini-line" stroke="#64748b" d="M 360 900 C 360 932, 600 948, 600 980"/>
    <line class="mini-line" stroke="#4ade80" x1="600" y1="980" x2="600" y2="1020"/>
    <line class="mini-line" stroke="#4ade80" x1="600" y1="1020" x2="600" y2="1060"/>
    <path class="mini-line" stroke="#64748b" d="M 600 1020 C 600 1052, 960 1068, 960 1100"/>
    <line class="mini-line" stroke="#4ade80" x1="600" y1="1060" x2="600" y2="1180"/>
    <path class="mini-line" stroke="#64748b" d="M 960 1100 C 960 1132, 600 1148, 600 1180"/>
    <line class="mini-line" stroke="#4ade80" x1="600" y1="1180" x2="600" y2="1300"/>
    <path class="mini-line" stroke="#64748b" d="M 600 1180 C 600 1196, 240 1204, 240 1220"/>
    <path class="mini-line" stroke="#64748b" d="M 240 1220 C 240 1252, 600 1268, 600 1300"/>
    <line class="mini-line" stroke="#4ade80" x1="600" y1="1300" x2="600" y2="1420"/>
    <path class="mini-line" stroke="#64748b" d="M 600 1300 C 600 1316, 1080 1324, 1080 1340"/>
    <path class="mini-line" stroke="#64748b" d="M 1080 1340 C 1080 1372, 600 1388, 600 1420"/>
    <line class="mini-line" stroke="#4ade80" x1="600" y1="1420" x2="600" y2="1460"/>
    <line class="mini-line" stroke="#4ade80" x1="600" y1="1460" x2="600" y2="1500"/>
    <line class="mini-line" stroke="#4ade80" x1="600" y1="1500" x2="600" y2="1540"/>
    <line class="mini-line" stroke="#4ade80" x1="600" y1="1540" x2="600" y2="1580"/>
    <line class="mini-line" stroke="#4ade80" x1="600" y1="1580" x2="600" y2="1700"/>
    <path class="mini-line" stroke="#64748b" d="M 600 1580 C 600 1596, 120 1604, 120 1620"/>
    <path class="mini-line" stroke="#64748b" d="M 120 1620 C 120 1652, 600 1668, 600 1700"/>
    <line class="mini-line" stroke="#4ade80" x1="600" y1="1700" x2="600" y2="1740"/>
    <line class="mini-line" stroke="#4ade80" x1="600" y1="1740" x2="600" y2="1780"/>
    <line class="mini-line" stroke="#4ade80" x1="600" y1="1780" x2="600" y2="1820"/>
    <line class="mini-line" stroke="#4ade80" x1="600" y1="1820" x2="600" y2="1860"/>
    <path class="mini-line" stroke="#64748b" d="M 600 1820 C 600 1852, 1200 1868, 1200 1900"/>
    <line class="mini-line" stroke="#4ade80" x1="600" y1="1860" x2="600" y2="1980"/>
    <path class="mini-line" stroke="#64748b" d="M 1200 1900 C 1200 1932, 600 1948, 600 1980"/>
    <line class="mini-line" stroke="#4ade80" x1="600" y1="1980" x2="600" y2="2020"/>
    <line class="mini-line" stroke="#4ade80" x1="600" y1="2020" x2="600" y2="2060"/>
    <line class="mini-line" stroke="#4ade80" x1="600" y1="2060" x2="600" y2="2100"/>
    <line class="mini-line" stroke="#4ade80" x1="600" y1="2100" x2="600" y2="2140"/>
    <line class="mini-line" stroke="#4ade80" x1="600" y1="2140" x2="600" y2="2180"/>
    <line class="mini-line" stroke="#4ade80" x1="600" y1="2180" x2="600" y2="2220"/>
    <line class="mini-line" stroke="#4ade80" x1="600" y1="2220" x2="600" y2="2260"/>
    <line class="mini-line" stroke="#4ade80" x1="600" y1="2260" x2="600" y2="2300"/>
    <circle cx="600" cy="60" r="4" fill="#4ade80" opacity="0.9"/>
    <circle cx="600" cy="100" r="4" fill="#4ade80" opacity="0.9"/>
    <circle cx="600" cy="140" r="4" fill="#4ade80" opacity="0.9"/>
    <circle cx="600" cy="180" r="7" fill="#c084fc" opacity="0.9"/>
    <circle cx="600" cy="220" r="4" fill="#4ade80" opacity="0.9"/>
    <circle cx="720" cy="260" r="4" fill="#4ade80" opacity="0.9"/>
    <circle cx="600" cy="340" r="6" fill="#fb923c" opacity="0.9"/>
    <circle cx="600" cy="380" r="7" fill="#c084fc" opacity="0.9"/>
    <circle cx="600" cy="420" r="4" fill="#4ade80" opacity="0.9"/>
    <circle cx="480" cy="460" r="4" fill="#4ade80" opacity="0.9"/>
    <circle cx="600" cy="540" r="6" fill="#fb923c" opacity="0.9"/>
    <circle cx="600" cy="580" r="4" fill="#4ade80" opacity="0.9"/>
    <circle cx="600" cy="620" r="7" fill="#c084fc" opacity="0.9"/>
    <circle cx="600" cy="660" r="4" fill="#4ade80" opacity="0.9"/>
    <circle cx="840" cy="700" r="4" fill="#4ade80" opacity="0.9"/>
    <circle cx="600" cy="780" r="6" fill="#fb923c" opacity="0.9"/>
    <circle cx="600" cy="820" r="4" fill="#4ade80" opacity="0.9"/>
    <circle cx="600" cy="860" r="7" fill="#c084fc" opacity="0.9"/>
    <circle cx="360" cy="900" r="4" fill="#4ade80" opacity="0.9"/>
    <circle cx="600" cy="980" r="6" fill="#fb923c" opacity="0.9"/>
    <circle cx="600" cy="1020" r="7" fill="#c084fc" opacity="0.9"/>
    <circle cx="600" cy="1060" r="4" fill="#4ade80" opacity="0.9"/>
    <circle cx="960" cy="1100" r="4" fill="#4ade80" opacity="0.9"/>
    <circle cx="600" cy="1180" r="7" fill="#c084fc" opacity="0.9"/>
    <circle cx="240" cy="1220" r="4" fill="#4ade80" opacity="0.9"/>
    <circle cx="600" cy="1300" r="7" fill="#c084fc" opacity="0.9"/>
    <circle cx="1080" cy="1340" r="4" fill="#4ade80" opacity="0.9"/>
    <circle cx="600" cy="1420" r="6" fill="#fb923c" opacity="0.9"/>
    <circle cx="600" cy="1460" r="4" fill="#4ade80" opacity="0.9"/>
    <circle cx="600" cy="1500" r="4" fill="#4ade80" opacity="0.9"/>
    <circle cx="600" cy="1540" r="4" fill="#4ade80" opacity="0.9"/>
    <circle cx="600" cy="1580" r="7" fill="#c084fc" opacity="0.9"/>
    <circle cx="120" cy="1620" r="4" fill="#4ade80" opacity="0.9"/>
    <circle cx="600" cy="1700" r="6" fill="#fb923c" opacity="0.9"/>
    <circle cx="600" cy="1740" r="4" fill="#4ade80" opacity="0.9"/>
    <circle cx="600" cy="1780" r="4" fill="#4ade80" opacity="0.9"/>
    <circle cx="600" cy="1820" r="7" fill="#c084fc" opacity="0.9"/>
    <circle cx="600" cy="1860" r="4" fill="#4ade80" opacity="0.9"/>
    <circle cx="1200" cy="1900" r="4" fill="#4ade80" opacity="0.9"/>
    <circle cx="600" cy="1980" r="6" fill="#fb923c" opacity="0.9"/>
    <circle cx="600" cy="2020" r="4" fill="#4ade80" opacity="0.9"/>
    <circle cx="600" cy="2060" r="4" fill="#4ade80" opacity="0.9"/>
    <circle cx="600" cy="2100" r="4" fill="#4ade80" opacity="0.9"/>
    <circle cx="600" cy="2140" r="4" fill="#4ade80" opacity="0.9"/>
    <circle cx="600" cy="2180" r="4" fill="#4ade80" opacity="0.9"/>
    <circle cx="600" cy="2220" r="4" fill="#4ade80" opacity="0.9"/>
    <circle cx="600" cy="2260" r="4" fill="#38bdf8" opacity="0.9"/>
    <circle cx="600" cy="2300" r="4" fill="#4ade80" opacity="0.9"/>
  </g>
</svg>
