<?xml version="1.0" encoding="UTF-8"?>
<svg xmlns="http://www.w3.org/2000/svg"
     width="300" height="589"
     viewBox="100 40 1120 2200">
  <style>
    @keyframes sway {
      0%   { transform: translateX(0); }
      25%  { transform: translateX(3px); }
      50%  { transform: translateX(-2px); }
      75%  { transform: translateX(4px); }
      100% { transform: translateX(0); }
    }
    .mini-node { animation: sway 4s ease-in-out infinite; }
    .mini-line { stroke-width: 1.5; fill: none; opacity: 0.5; }
  </style>
  <rect width="100%" height="100%" fill="#0a0a1a" rx="6"/>
  <g class="mini-node">
    <line class="mini-line" stroke="#4ade80" x1="600" y1="60" x2="600" y2="100"/>
    <line class="mini-line" stroke="#4ade80" x1="600" y1="100" x2="600" y2="140"/>
    <path class="mini-line" stroke="#64748b" d="M 600 100 C 600 132, 720 148, 720 180"/>
    <line class="mini-line" stroke="#4ade80" x1="600" y1="140" x2="600" y2="260"/>
    <path class="mini-line" stroke="#64748b" d="M 720 180 C 720 212, 600 228, 600 260"/>
    <line class="mini-line" stroke="#4ade80" x1="600" y1="260" x2="600" y2="300"/>
    <line class="mini-line" stroke="#4ade80" x1="600" y1="300" x2="600" y2="340"/>
    <path class="mini-line" stroke="#64748b" d="M 600 300 C 600 332, 480 348, 480 380"/>
    <line class="mini-line" stroke="#4ade80" x1="600" y1="340" x2="600" y2="460"/>
    <path class="mini-line" stroke="#64748b" d="M 480 380 C 480 412, 600 428, 600 460"/>
    <line class="mini-line" stroke="#4ade80" x1="600" y1="460" x2="600" y2="500"/>
    <line class="mini-line" stroke="#4ade80" x1="600" y1="500" x2="600" y2="540"/>
    <line class="mini-line" stroke="#4ade80" x1="600" y1="540" x2="600" y2="580"/>
    <path class="mini-line" stroke="#64748b" d="M 600 540 C 600 572, 840 588, 840 620"/>
    <line class="mini-line" stroke="#4ade80" x1="600" y1="580" x2="600" y2="700"/>
    <path class="mini-line" stroke="#64748b" d="M 840 620 C 840 652, 600 668, 600 700"/>
    <line class="mini-line" stroke="#4ade80" x1="600" y1="700" x2="600" y2="740"/>
    <line class="mini-line" stroke="#4ade80" x1="600" y1="740" x2="600" y2="780"/>
    <line class="mini-line" stroke="#4ade80" x1="600" y1="780" x2="600" y2="900"/>
    <path class="mini-line" stroke="#64748b" d="M 600 780 C 600 796, 360 804, 360 820"/>
    <path class="mini-line" stroke="#64748b" d="M 360 820 C 360 852, 600 868, 600 900"/>
    <line class="mini-line" stroke="#4ade80" x1="600" y1="900" x2="600" y2="940"/>
    <line class="mini-line" stroke="#4ade80" x1="600" y1="940" x2="600" y2="980"/>
    <path class="mini-line" stroke="#64748b" d="M 600 940 C 600 972, 960 988, 960 1020"/>
    <line class="mini-line" stroke="#4ade80" x1="600" y1="980" x2="600" y2="1100"/>
    <path class="mini-line" stroke="#64748b" d="M 960 1020 C 960 1052, 600 1068, 600 1100"/>
    <line class="mini-line" stroke="#4ade80" x1="600" y1="1100" x2="600" y2="1220"/>
    <path class="mini-line" stroke="#64748b" d="M 600 1100 C 600 1116, 240 1124, 240 1140"/>
    <path class="mini-line" stroke="#64748b" d="M 240 1140 C 240 1172, 600 1188, 600 1220"/>
    <line class="mini-line" stroke="#4ade80" x1="600" y1="1220" x2="600" y2="1340"/>
    <path class="mini-line" stroke="#64748b" d="M 600 1220 C 600 1236, 1080 1244, 1080 1260"/>
    <path class="mini-line" stroke="#64748b" d="M 1080 1260 C 1080 1292, 600 1308, 600 1340"/>
    <line class="mini-line" stroke="#4ade80" x1="600" y1="1340" x2="600" y2="1380"/>
    <line class="mini-line" stroke="#4ade80" x1="600" y1="1380" x2="600" y2="1420"/>
    <line class="mini-line" stroke="#4ade80" x1="600" y1="1420" x2="600" y2="1460"/>
    <line class="mini-line" stroke="#4ade80" x1="600" y1="1460" x2="600" y2="1500"/>
    <line class="mini-line" stroke="#4ade80" x1="600" y1="1500" x2="600" y2="1620"/>
    <path class="mini-line" stroke="#64748b" d="M 600 1500 C 600 1516, 120 1524, 120 1540"/>
    <path class="mini-line" stroke="#64748b" d="M 120 1540 C 120 1572, 600 1588, 600 1620"/>
    <line class="mini-line" stroke="#4ade80" x1="600" y1="1620" x2="600" y2="1660"/>
    <line class="mini-line" stroke="#4ade80" x1="600" y1="1660" x2="600" y2="1700"/>
    <line class="mini-line" stroke="#4ade80" x1="600" y1="1700" x2="600" y2="1740"/>
    <line class="mini-line" stroke="#4ade80" x1="600" y1="1740" x2="600" y2="1780"/>
    <path class="mini-line" stroke="#64748b" d="M 600 1740 C 600 1772, 1200 1788, 1200 1820"/>
    <line class="mini-line" stroke="#4ade80" x1="600" y1="1780" x2="600" y2="1900"/>
    <path class="mini-line" stroke="#64748b" d="M 1200 1820 C 1200 1852, 600 1868, 600 1900"/>
    <line class="mini-line" stroke="#4ade80" x1="600" y1="1900" x2="600" y2="1940"/>
    <line class="mini-line" stroke="#4ade80" x1="600" y1="1940" x2="600" y2="1980"/>
    <line class="mini-line" stroke="#4ade80" x1="600" y1="1980" x2="600" y2="2020"/>
    <line class="mini-line" stroke="#4ade80" x1="600" y1="2020" x2="600" y2="2060"/>
    <line class="mini-line" stroke="#4ade80" x1="600" y1="2060" x2="600" y2="2100"/>
    <line class="mini-line" stroke="#4ade80" x1="600" y1="2100" x2="600" y2="2140"/>
    <line class="mini-line" stroke="#4ade80" x1="600" y1="2140" x2="600" y2="2180"/>
    <line class="mini-line" stroke="#4ade80" x1="600" y1="2180" x2="600" y2="2220"/>
    <circle cx="600" cy="60" r="4" fill="#4ade80" opacity="0.9"/>
    <circle cx="600" cy="100" r="7" fill="#c084fc" opacity="0.9"/>
    <circle cx="600" cy="140" r="4" fill="#4ade80" opacity="0.9"/>
    <circle cx="720" cy="180" r="4" fill="#4ade80" opacity="0.9"/>
    <circle cx="600" cy="260" r="6" fill="#fb923c" opacity="0.9"/>
    <circle cx="600" cy="300" r="7" fill="#c084fc" opacity="0.9"/>
    <circle cx="600" cy="340" r="4" fill="#4ade80" opacity="0.9"/>
    <circle cx="480" cy="380" r="4" fill="#4ade80" opacity="0.9"/>
    <circle cx="600" cy="460" r="6" fill="#fb923c" opacity="0.9"/>
    <circle cx="600" cy="500" r="4" fill="#4ade80" opacity="0.9"/>
    <circle cx="600" cy="540" r="7" fill="#c084fc" opacity="0.9"/>
    <circle cx="600" cy="580" r="4" fill="#4ade80" opacity="0.9"/>
    <circle cx="840" cy="620" r="4" fill="#4ade80" opacity="0.9"/>
    <circle cx="600" cy="700" r="6" fill="#fb923c" opacity="0.9"/>
    <circle cx="600" cy="740" r="4" fill="#4ade80" opacity="0.9"/>
    <circle cx="600" cy="780" r="7" fill="#c084fc" opacity="0.9"/>
    <circle cx="360" cy="820" r="4" fill="#4ade80" opacity="0.9"/>
    <circle cx="600" cy="900" r="6" fill="#fb923c" opacity="0.9"/>
    <circle cx="600" cy="940" r="7" fill="#c084fc" opacity="0.9"/>
    <circle cx="600" cy="980" r="4" fill="#4ade80" opacity="0.9"/>
    <circle cx="960" cy="1020" r="4" fill="#4ade80" opacity="0.9"/>
    <circle cx="600" cy="1100" r="7" fill="#c084fc" opacity="0.9"/>
    <circle cx="240" cy="1140" r="4" fill="#4ade80" opacity="0.9"/>
    <circle cx="600" cy="1220" r="7" fill="#c084fc" opacity="0.9"/>
    <circle cx="1080" cy="1260" r="4" fill="#4ade80" opacity="0.9"/>
    <circle cx="600" cy="1340" r="6" fill="#fb923c" opacity="0.9"/>
    <circle cx="600" cy="1380" r="4" fill="#4ade80" opacity="0.9"/>
    <circle cx="600" cy="1420" r="4" fill="#4ade80" opacity="0.9"/>
    <circle cx="600" cy="1460" r="4" fill="#4ade80" opacity="0.9"/>
    <circle cx="600" cy="1500" r="7" fill="#c084fc" opacity="0.9"/>
    <circle cx="120" cy="1540" r="4" fill="#4ade80" opacity="0.9"/>
    <circle cx="600" cy="1620" r="6" fill="#fb923c" opacity="0.9"/>
    <circle cx="600" cy="1660" r="4" fill="#4ade80" opacity="0.9"/>
    <circle cx="600" cy="1700" r="4" fill="#4ade80" opacity="0.9"/>
    <circle cx="600" cy="1740" r="7" fill="#c084fc" opacity="0.9"/>
    <circle cx="600" cy="1780" r="4" fill="#4ade80" opacity="0.9"/>
    <circle cx="1200" cy="1820" r="4" fill="#4ade80" opacity="0.9"/>
    <circle cx="600" cy="1900" r="6" fill="#fb923c" opacity="0.9"/>
    <circle cx="600" cy="1940" r="4" fill="#4ade80" opacity="0.9"/>
    <circle cx="600" cy="1980" r="4" fill="#4ade80" opacity="0.9"/>
    <circle cx="600" cy="2020" r="4" fill="#4ade80" opacity="0.9"/>
    <circle cx="600" cy="2060" r="4" fill="#4ade80" opacity="0.9"/>
    <circle cx="600" cy="2100" r="4" fill="#4ade80" opacity="0.9"/>
    <circle cx="600" cy="2140" r="4" fill="#4ade80" opacity="0.9"/>
    <circle cx="600" cy="2180" r="4" fill="#38bdf8" opacity="0.9"/>
    <circle cx="600" cy="2220" r="4" fill="#4ade80" opacity="0.9"/>
  </g>
</svg>
