<?xml version="1.0" encoding="UTF-8"?>
<svg xmlns="http://www.w3.org/2000/svg" 
     xmlns:xlink="http://www.w3.org/1999/xlink"
     width="1600" height="2540" 
     viewBox="0 0 1600 2540">
  <defs>
    <radialGradient id="leafGradient">
      <stop offset="0%" style="stop-color:#22c55e;stop-opacity:1" />
      <stop offset="100%" style="stop-color:#16a34a;stop-opacity:0.8" />
    </radialGradient>
    <radialGradient id="mergeGradient">
      <stop offset="0%" style="stop-color:#a78bfa;stop-opacity:1" />
      <stop offset="100%" style="stop-color:#7c3aed;stop-opacity:0.8" />
    </radialGradient>
    <radialGradient id="forkGradient">
      <stop offset="0%" style="stop-color:#fb923c;stop-opacity:1" />
      <stop offset="100%" style="stop-color:#ea580c;stop-opacity:0.8" />
    </radialGradient>
    <radialGradient id="tagGradient">
      <stop offset="0%" style="stop-color:#38bdf8;stop-opacity:1" />
      <stop offset="100%" style="stop-color:#0284c7;stop-opacity:0.8" />
    </radialGradient>
    <style>
      .branch-line { stroke: #64748b; stroke-width: 2; fill: none; opacity: 0.7; }
      .trunk-line { stroke: #22c55e; stroke-width: 2.5; fill: none; opacity: 0.6; }
      .commit-leaf { cursor: pointer; }
      .commit-leaf:hover { filter: brightness(1.5); }
      .branch-label { font-family: sans-serif; font-size: 12px; font-weight: bold; fill: #0f172a; }
    </style>
  </defs>
  
  <rect width="1600" height="2540" fill="#f8fafc"/>
  <defs>
    <pattern id="grid" width="100" height="100" patternUnits="userSpaceOnUse">
      <path d="M 100 0 L 0 0 0 100" fill="none" stroke="#e2e8f0" stroke-width="0.5" opacity="0.3"/>
    </pattern>
  </defs>
  <rect width="1600" height="2540" fill="url(#grid)"/>
  
  <!-- Branch connection lines -->
  <g id="branches">
    <line class="trunk-line" x1="600" y1="60" x2="600" y2="100"/>
    <path class="branch-line" d="M 600 60 C 600 92, 720 108, 720 140"/>
    <line class="trunk-line" x1="600" y1="100" x2="600" y2="220"/>
    <path class="branch-line" d="M 720 140 C 720 172, 600 188, 600 220"/>
    <line class="trunk-line" x1="600" y1="220" x2="600" y2="260"/>
    <line class="trunk-line" x1="600" y1="260" x2="600" y2="300"/>
    <line class="trunk-line" x1="600" y1="300" x2="600" y2="340"/>
    <path class="branch-line" d="M 600 300 C 600 332, 480 348, 480 380"/>
    <line class="trunk-line" x1="600" y1="340" x2="600" y2="460"/>
    <path class="branch-line" d="M 480 380 C 480 412, 600 428, 600 460"/>
    <line class="trunk-line" x1="600" y1="460" x2="600" y2="500"/>
    <line class="trunk-line" x1="600" y1="500" x2="600" y2="540"/>
    <path class="branch-line" d="M 600 500 C 600 532, 840 548, 840 580"/>
    <line class="trunk-line" x1="600" y1="540" x2="600" y2="660"/>
    <path class="branch-line" d="M 840 580 C 840 612, 600 628, 600 660"/>
    <line class="trunk-line" x1="600" y1="660" x2="600" y2="700"/>
    <line class="trunk-line" x1="600" y1="700" x2="600" y2="740"/>
    <line class="trunk-line" x1="600" y1="740" x2="600" y2="780"/>
    <path class="branch-line" d="M 600 740 C 600 772, 360 788, 360 820"/>
    <line class="trunk-line" x1="600" y1="780" x2="600" y2="900"/>
    <path class="branch-line" d="M 360 820 C 360 852, 600 868, 600 900"/>
    <line class="trunk-line" x1="600" y1="900" x2="600" y2="940"/>
    <line class="trunk-line" x1="600" y1="940" x2="600" y2="980"/>
    <line class="trunk-line" x1="600" y1="980" x2="600" y2="1100"/>
    <path class="branch-line" d="M 600 980 C 600 996, 960 1004, 960 1020"/>
    <path class="branch-line" d="M 960 1020 C 960 1052, 600 1068, 600 1100"/>
    <line class="trunk-line" x1="600" y1="1100" x2="600" y2="1140"/>
    <line class="trunk-line" x1="600" y1="1140" x2="600" y2="1180"/>
    <path class="branch-line" d="M 600 1140 C 600 1172, 240 1188, 240 1220"/>
    <line class="trunk-line" x1="600" y1="1180" x2="600" y2="1300"/>
    <path class="branch-line" d="M 240 1220 C 240 1252, 600 1268, 600 1300"/>
    <line class="trunk-line" x1="600" y1="1300" x2="600" y2="1420"/>
    <path class="branch-line" d="M 600 1300 C 600 1316, 1080 1324, 1080 1340"/>
    <path class="branch-line" d="M 1080 1340 C 1080 1372, 600 1388, 600 1420"/>
    <line class="trunk-line" x1="600" y1="1420" x2="600" y2="1540"/>
    <path class="branch-line" d="M 600 1420 C 600 1436, 120 1444, 120 1460"/>
    <path class="branch-line" d="M 120 1460 C 120 1492, 600 1508, 600 1540"/>
    <line class="trunk-line" x1="600" y1="1540" x2="600" y2="1580"/>
    <line class="trunk-line" x1="600" y1="1580" x2="600" y2="1620"/>
    <line class="trunk-line" x1="600" y1="1620" x2="600" y2="1660"/>
    <line class="trunk-line" x1="600" y1="1660" x2="600" y2="1700"/>
    <line class="trunk-line" x1="600" y1="1700" x2="600" y2="1820"/>
    <path class="branch-line" d="M 600 1700 C 600 1716, 1200 1724, 1200 1740"/>
    <path class="branch-line" d="M 1200 1740 C 1200 1772, 600 1788, 600 1820"/>
    <line class="trunk-line" x1="600" y1="1820" x2="600" y2="1860"/>
    <line class="trunk-line" x1="600" y1="1860" x2="600" y2="1900"/>
    <line class="trunk-line" x1="600" y1="1900" x2="600" y2="1940"/>
    <line class="trunk-line" x1="600" y1="1940" x2="600" y2="1980"/>
    <path class="branch-line" d="M 600 1940 C 600 1972, 0 1988, 0 2020"/>
    <line class="trunk-line" x1="600" y1="1980" x2="600" y2="2100"/>
    <path class="branch-line" d="M 0 2020 C 0 2052, 600 2068, 600 2100"/>
    <line class="trunk-line" x1="600" y1="2100" x2="600" y2="2140"/>
    <line class="trunk-line" x1="600" y1="2140" x2="600" y2="2180"/>
    <line class="trunk-line" x1="600" y1="2180" x2="600" y2="2220"/>
    <line class="trunk-line" x1="600" y1="2220" x2="600" y2="2260"/>
    <line class="trunk-line" x1="600" y1="2260" x2="600" y2="2300"/>
    <line class="trunk-line" x1="600" y1="2300" x2="600" y2="2340"/>
    <line class="trunk-line" x1="600" y1="2340" x2="600" y2="2380"/>
    <line class="trunk-line" x1="600" y1="2380" x2="600" y2="2420"/>
  </g>
  <!-- Commit nodes -->
  <g id="commits">
    <circle class="commit-leaf" cx="600" cy="60" r="10" fill="url(#mergeGradient)" stroke="#7c3aed" stroke-width="1.5"><title>b016c1d: Merge pull request #10 from XAOSTECH:chore/update-submodules-20260706-040540</title></circle>
    <circle class="commit-leaf" cx="600" cy="100" r="6" fill="url(#leafGradient)" stroke="#16a34a" stroke-width="1.5"><title>91f12e9: chore: update git tree visualisation</title></circle>
    <circle class="commit-leaf" cx="720" cy="140" r="6" fill="url(#leafGradient)" stroke="#16a34a" stroke-width="1.5"><title>12f259b: chore: update 1 submodule(s) to latest</title></circle>
    <circle class="commit-leaf" cx="600" cy="220" r="9" fill="url(#forkGradient)" stroke="#ea580c" stroke-width="1.5"><title>af82838: chore: update git tree visualisation</title></circle>
    <circle class="commit-leaf" cx="600" cy="260" r="6" fill="url(#leafGradient)" stroke="#16a34a" stroke-width="1.5"><title>d016273: chore: update CHANGELOG for v0.1.1 (re-release)</title></circle>
    <circle class="commit-leaf" cx="600" cy="300" r="10" fill="url(#mergeGradient)" stroke="#7c3aed" stroke-width="1.5"><title>720e6ca: Merge pull request #9 from XAOSTECH:chore/update-submodules-20260615-050216</title></circle>
    <circle class="commit-leaf" cx="600" cy="340" r="6" fill="url(#leafGradient)" stroke="#16a34a" stroke-width="1.5"><title>8ab3958: chore: update git tree visualisation</title></circle>
    <circle class="commit-leaf" cx="480" cy="380" r="6" fill="url(#leafGradient)" stroke="#16a34a" stroke-width="1.5"><title>1fe3b92: chore: update 1 submodule(s) to latest</title></circle>
    <circle class="commit-leaf" cx="600" cy="460" r="9" fill="url(#forkGradient)" stroke="#ea580c" stroke-width="1.5"><title>b0700bf: chore: update git tree visualisation</title></circle>
    <circle class="commit-leaf" cx="600" cy="500" r="10" fill="url(#mergeGradient)" stroke="#7c3aed" stroke-width="1.5"><title>2599fa8: Merge pull request #8 from XAOSTECH:chore/update-submodules-20260601-045139</title></circle>
    <circle class="commit-leaf" cx="600" cy="540" r="6" fill="url(#leafGradient)" stroke="#16a34a" stroke-width="1.5"><title>5841d35: chore: update git tree visualisation</title></circle>
    <circle class="commit-leaf" cx="840" cy="580" r="6" fill="url(#leafGradient)" stroke="#16a34a" stroke-width="1.5"><title>ca135f6: chore: update 1 submodule(s) to latest</title></circle>
    <circle class="commit-leaf" cx="600" cy="660" r="9" fill="url(#forkGradient)" stroke="#ea580c" stroke-width="1.5"><title>9ba65d9: chore: update CHANGELOG for v0.1.1</title></circle>
    <circle class="commit-leaf" cx="600" cy="700" r="6" fill="url(#leafGradient)" stroke="#16a34a" stroke-width="1.5"><title>c78eb6e: chore: update git tree visualisation</title></circle>
    <circle class="commit-leaf" cx="600" cy="740" r="10" fill="url(#mergeGradient)" stroke="#7c3aed" stroke-width="1.5"><title>aedd827: Merge pull request #7 from XAOSTECH:chore/update-submodules-20260511-040242</title></circle>
    <circle class="commit-leaf" cx="600" cy="780" r="6" fill="url(#leafGradient)" stroke="#16a34a" stroke-width="1.5"><title>801f48e: chore: update git tree visualisation</title></circle>
    <circle class="commit-leaf" cx="360" cy="820" r="6" fill="url(#leafGradient)" stroke="#16a34a" stroke-width="1.5"><title>36dabe4: chore: update 2 submodule(s) to latest</title></circle>
    <circle class="commit-leaf" cx="600" cy="900" r="9" fill="url(#forkGradient)" stroke="#ea580c" stroke-width="1.5"><title>2d6f1a0: chore: update git tree visualisation</title></circle>
    <circle class="commit-leaf" cx="600" cy="940" r="6" fill="url(#leafGradient)" stroke="#16a34a" stroke-width="1.5"><title>75c4cd3: chore: update CHANGELOG for v0.1.0 (re-release)</title></circle>
    <circle class="commit-leaf" cx="600" cy="980" r="10" fill="url(#mergeGradient)" stroke="#7c3aed" stroke-width="1.5"><title>69eba48: Merge pull request #6 from XAOSTECH:chore/update-submodules-20260420-033219</title></circle>
    <circle class="commit-leaf" cx="960" cy="1020" r="6" fill="url(#leafGradient)" stroke="#16a34a" stroke-width="1.5"><title>25170bd: chore: update 1 submodule(s) to latest</title></circle>
    <circle class="commit-leaf" cx="600" cy="1100" r="9" fill="url(#forkGradient)" stroke="#ea580c" stroke-width="1.5"><title>1fc9358: chore: update git tree visualisation</title></circle>
    <circle class="commit-leaf" cx="600" cy="1140" r="10" fill="url(#mergeGradient)" stroke="#7c3aed" stroke-width="1.5"><title>64b5ad9: Merge pull request #5 from XAOSTECH:chore/update-submodules-20260406-032120</title></circle>
    <circle class="commit-leaf" cx="600" cy="1180" r="6" fill="url(#leafGradient)" stroke="#16a34a" stroke-width="1.5"><title>be810bf: chore: update CHANGELOG for v0.1.0 (re-release)</title></circle>
    <circle class="commit-leaf" cx="240" cy="1220" r="6" fill="url(#leafGradient)" stroke="#16a34a" stroke-width="1.5"><title>f75b2d7: chore: update 1 submodule(s) to latest</title></circle>
    <circle class="commit-leaf" cx="600" cy="1300" r="10" fill="url(#mergeGradient)" stroke="#7c3aed" stroke-width="1.5"><title>192a282: Merge pull request #4 from XAOSTECH:anglicise/20260401-021212</title></circle>
    <circle class="commit-leaf" cx="1080" cy="1340" r="6" fill="url(#leafGradient)" stroke="#16a34a" stroke-width="1.5"><title>a422b39: chore: convert American spellings to British English</title></circle>
    <circle class="commit-leaf" cx="600" cy="1420" r="10" fill="url(#mergeGradient)" stroke="#7c3aed" stroke-width="1.5"><title>afc97fc: Merge pull request #3 from XAOSTECH:chore/update-submodules-20260330-031919</title></circle>
    <circle class="commit-leaf" cx="120" cy="1460" r="6" fill="url(#leafGradient)" stroke="#16a34a" stroke-width="1.5"><title>40a2495: chore: update 1 submodule(s) to latest</title></circle>
    <circle class="commit-leaf" cx="600" cy="1540" r="9" fill="url(#forkGradient)" stroke="#ea580c" stroke-width="1.5"><title>7926d8e: chore(dc-init): load workflows,actions</title></circle>
    <circle class="commit-leaf" cx="600" cy="1580" r="6" fill="url(#leafGradient)" stroke="#16a34a" stroke-width="1.5"><title>c93967b: chore: update git tree visualisation</title></circle>
    <circle class="commit-leaf" cx="600" cy="1620" r="6" fill="url(#leafGradient)" stroke="#16a34a" stroke-width="1.5"><title>1082cbe: chore: update git tree visualisation</title></circle>
    <circle class="commit-leaf" cx="600" cy="1660" r="6" fill="url(#leafGradient)" stroke="#16a34a" stroke-width="1.5"><title>958dc12: chore: update CHANGELOG for v0.1.0</title></circle>
    <circle class="commit-leaf" cx="600" cy="1700" r="10" fill="url(#mergeGradient)" stroke="#7c3aed" stroke-width="1.5"><title>e1f6b8e: Merge pull request #2 from XAOSTECH:chore/update-submodules-20260321-204419</title></circle>
    <circle class="commit-leaf" cx="1200" cy="1740" r="6" fill="url(#leafGradient)" stroke="#16a34a" stroke-width="1.5"><title>f0fb49f: chore: update 1 submodule(s) to latest</title></circle>
    <circle class="commit-leaf" cx="600" cy="1820" r="9" fill="url(#forkGradient)" stroke="#ea580c" stroke-width="1.5"><title>54e9327: chore(dc-init): update workflows + pin design-flows</title></circle>
    <circle class="commit-leaf" cx="600" cy="1860" r="6" fill="url(#leafGradient)" stroke="#16a34a" stroke-width="1.5"><title>4c66e66: chore: vsGen + pin design-flows</title></circle>
    <circle class="commit-leaf" cx="600" cy="1900" r="6" fill="url(#leafGradient)" stroke="#16a34a" stroke-width="1.5"><title>f30f18c: chore: update git tree visualisation</title></circle>
    <circle class="commit-leaf" cx="600" cy="1940" r="10" fill="url(#mergeGradient)" stroke="#7c3aed" stroke-width="1.5"><title>3a417b7: Merge pull request #1 from XAOSTECH:chore/update-submodules-20260321-190402</title></circle>
    <circle class="commit-leaf" cx="600" cy="1980" r="6" fill="url(#leafGradient)" stroke="#16a34a" stroke-width="1.5"><title>d898ec6: chore: update git tree visualisation</title></circle>
    <circle class="commit-leaf" cx="0" cy="2020" r="6" fill="url(#leafGradient)" stroke="#16a34a" stroke-width="1.5"><title>152772c: chore: update 1 submodule(s) to latest</title></circle>
    <circle class="commit-leaf" cx="600" cy="2100" r="9" fill="url(#forkGradient)" stroke="#ea580c" stroke-width="1.5"><title>5e9aa68: chore(dc-contain): update container config</title></circle>
    <circle class="commit-leaf" cx="600" cy="2140" r="6" fill="url(#leafGradient)" stroke="#16a34a" stroke-width="1.5"><title>b94d829: chore(dc-init): update workflows + action</title></circle>
    <circle class="commit-leaf" cx="600" cy="2180" r="6" fill="url(#leafGradient)" stroke="#16a34a" stroke-width="1.5"><title>e449e77: chore: add pastel as submodule</title></circle>
    <circle class="commit-leaf" cx="600" cy="2220" r="6" fill="url(#leafGradient)" stroke="#16a34a" stroke-width="1.5"><title>cc380cc: chore: update design-flows with export flag feature</title></circle>
    <circle class="commit-leaf" cx="600" cy="2260" r="6" fill="url(#leafGradient)" stroke="#16a34a" stroke-width="1.5"><title>e9718ed: chore: update submodules</title></circle>
    <circle class="commit-leaf" cx="600" cy="2300" r="6" fill="url(#leafGradient)" stroke="#16a34a" stroke-width="1.5"><title>aec4ec1: chore: README</title></circle>
    <circle class="commit-leaf" cx="600" cy="2340" r="6" fill="url(#leafGradient)" stroke="#16a34a" stroke-width="1.5"><title>cbd50ce: fix(dc-modules): submodule refs</title></circle>
    <circle class="commit-leaf" cx="600" cy="2380" r="6" fill="url(#tagGradient)" stroke="#0284c7" stroke-width="1.5"><title>c3b6948: chore: update CHANGELOG for v0.0.1</title></circle>
    <circle class="commit-leaf" cx="600" cy="2420" r="6" fill="url(#leafGradient)" stroke="#16a34a" stroke-width="1.5"><title>36f7d0e: init + dc-init</title></circle>
  </g>
  
  <!-- Legend -->
  <g id="legend" transform="translate(20, 20)">
    <rect width="200" height="110" fill="white" stroke="#cbd5e1" stroke-width="1" rx="4"/>
    <circle cx="20" cy="25" r="5" fill="url(#leafGradient)" stroke="#16a34a"/>
    <text x="32" y="30" class="branch-label" font-size="12">Regular Commit</text>
    <circle cx="20" cy="50" r="6" fill="url(#mergeGradient)" stroke="#7c3aed"/>
    <text x="32" y="55" class="branch-label" font-size="12">Merge Commit</text>
    <circle cx="20" cy="75" r="6" fill="url(#forkGradient)" stroke="#ea580c"/>
    <text x="32" y="80" class="branch-label" font-size="12">Fork Point</text>
    <circle cx="20" cy="100" r="6" fill="url(#tagGradient)" stroke="#0284c7"/>
    <text x="32" y="105" class="branch-label" font-size="12">Tagged</text>
  </g>
  
  <!-- Repository info -->
  <g id="info" transform="translate(20, 2500)">
    <text x="0" y="0" class="branch-label" font-size="12" fill="#666">
      Repository: design-tools
    </text>
    <text x="0" y="20" class="branch-label" font-size="10" fill="#999">
      Generated: 2026-07-13 03:32:40 UTC
    </text>
  </g>
</svg>
