<?xml version="1.0" encoding="UTF-8"?>
<svg xmlns="http://www.w3.org/2000/svg"
     width="300" height="586"
     viewBox="220 40 880 1720">
  <style>
    @keyframes sway {
      0%   { transform: translateX(0); }
      25%  { transform: translateX(3px); }
      50%  { transform: translateX(-2px); }
      75%  { transform: translateX(4px); }
      100% { transform: translateX(0); }
    }
    .mini-node { animation: sway 4s ease-in-out infinite; }
    .mini-line { stroke-width: 1.5; fill: none; opacity: 0.5; }
  </style>
  <rect width="100%" height="100%" fill="#0a0a1a" rx="6"/>
  <g class="mini-node">
    <line class="mini-line" stroke="#4ade80" x1="600" y1="60" x2="600" y2="100"/>
    <path class="mini-line" stroke="#64748b" d="M 600 60 C 600 92, 720 108, 720 140"/>
    <line class="mini-line" stroke="#4ade80" x1="600" y1="100" x2="600" y2="220"/>
    <path class="mini-line" stroke="#64748b" d="M 720 140 C 720 172, 600 188, 600 220"/>
    <line class="mini-line" stroke="#4ade80" x1="600" y1="220" x2="600" y2="260"/>
    <line class="mini-line" stroke="#4ade80" x1="600" y1="260" x2="600" y2="300"/>
    <line class="mini-line" stroke="#4ade80" x1="600" y1="300" x2="600" y2="420"/>
    <path class="mini-line" stroke="#64748b" d="M 600 300 C 600 316, 480 324, 480 340"/>
    <path class="mini-line" stroke="#64748b" d="M 480 340 C 480 372, 600 388, 600 420"/>
    <line class="mini-line" stroke="#4ade80" x1="600" y1="420" x2="600" y2="460"/>
    <line class="mini-line" stroke="#4ade80" x1="600" y1="460" x2="600" y2="500"/>
    <path class="mini-line" stroke="#64748b" d="M 600 460 C 600 492, 840 508, 840 540"/>
    <line class="mini-line" stroke="#4ade80" x1="600" y1="500" x2="600" y2="620"/>
    <path class="mini-line" stroke="#64748b" d="M 840 540 C 840 572, 600 588, 600 620"/>
    <line class="mini-line" stroke="#4ade80" x1="600" y1="620" x2="600" y2="740"/>
    <path class="mini-line" stroke="#64748b" d="M 600 620 C 600 636, 360 644, 360 660"/>
    <path class="mini-line" stroke="#64748b" d="M 360 660 C 360 692, 600 708, 600 740"/>
    <line class="mini-line" stroke="#4ade80" x1="600" y1="740" x2="600" y2="860"/>
    <path class="mini-line" stroke="#64748b" d="M 600 740 C 600 756, 960 764, 960 780"/>
    <path class="mini-line" stroke="#64748b" d="M 960 780 C 960 812, 600 828, 600 860"/>
    <line class="mini-line" stroke="#4ade80" x1="600" y1="860" x2="600" y2="900"/>
    <line class="mini-line" stroke="#4ade80" x1="600" y1="900" x2="600" y2="940"/>
    <line class="mini-line" stroke="#4ade80" x1="600" y1="940" x2="600" y2="980"/>
    <line class="mini-line" stroke="#4ade80" x1="600" y1="980" x2="600" y2="1020"/>
    <line class="mini-line" stroke="#4ade80" x1="600" y1="1020" x2="600" y2="1140"/>
    <path class="mini-line" stroke="#64748b" d="M 600 1020 C 600 1036, 240 1044, 240 1060"/>
    <path class="mini-line" stroke="#64748b" d="M 240 1060 C 240 1092, 600 1108, 600 1140"/>
    <line class="mini-line" stroke="#4ade80" x1="600" y1="1140" x2="600" y2="1180"/>
    <line class="mini-line" stroke="#4ade80" x1="600" y1="1180" x2="600" y2="1220"/>
    <line class="mini-line" stroke="#4ade80" x1="600" y1="1220" x2="600" y2="1260"/>
    <line class="mini-line" stroke="#4ade80" x1="600" y1="1260" x2="600" y2="1300"/>
    <path class="mini-line" stroke="#64748b" d="M 600 1260 C 600 1292, 1080 1308, 1080 1340"/>
    <line class="mini-line" stroke="#4ade80" x1="600" y1="1300" x2="600" y2="1420"/>
    <path class="mini-line" stroke="#64748b" d="M 1080 1340 C 1080 1372, 600 1388, 600 1420"/>
    <line class="mini-line" stroke="#4ade80" x1="600" y1="1420" x2="600" y2="1460"/>
    <line class="mini-line" stroke="#4ade80" x1="600" y1="1460" x2="600" y2="1500"/>
    <line class="mini-line" stroke="#4ade80" x1="600" y1="1500" x2="600" y2="1540"/>
    <line class="mini-line" stroke="#4ade80" x1="600" y1="1540" x2="600" y2="1580"/>
    <line class="mini-line" stroke="#4ade80" x1="600" y1="1580" x2="600" y2="1620"/>
    <line class="mini-line" stroke="#4ade80" x1="600" y1="1620" x2="600" y2="1660"/>
    <line class="mini-line" stroke="#4ade80" x1="600" y1="1660" x2="600" y2="1700"/>
    <line class="mini-line" stroke="#4ade80" x1="600" y1="1700" x2="600" y2="1740"/>
    <circle cx="600" cy="60" r="7" fill="#c084fc" opacity="0.9"/>
    <circle cx="600" cy="100" r="4" fill="#4ade80" opacity="0.9"/>
    <circle cx="720" cy="140" r="4" fill="#4ade80" opacity="0.9"/>
    <circle cx="600" cy="220" r="6" fill="#fb923c" opacity="0.9"/>
    <circle cx="600" cy="260" r="4" fill="#4ade80" opacity="0.9"/>
    <circle cx="600" cy="300" r="7" fill="#c084fc" opacity="0.9"/>
    <circle cx="480" cy="340" r="4" fill="#4ade80" opacity="0.9"/>
    <circle cx="600" cy="420" r="6" fill="#fb923c" opacity="0.9"/>
    <circle cx="600" cy="460" r="7" fill="#c084fc" opacity="0.9"/>
    <circle cx="600" cy="500" r="4" fill="#4ade80" opacity="0.9"/>
    <circle cx="840" cy="540" r="4" fill="#4ade80" opacity="0.9"/>
    <circle cx="600" cy="620" r="7" fill="#c084fc" opacity="0.9"/>
    <circle cx="360" cy="660" r="4" fill="#4ade80" opacity="0.9"/>
    <circle cx="600" cy="740" r="7" fill="#c084fc" opacity="0.9"/>
    <circle cx="960" cy="780" r="4" fill="#4ade80" opacity="0.9"/>
    <circle cx="600" cy="860" r="6" fill="#fb923c" opacity="0.9"/>
    <circle cx="600" cy="900" r="4" fill="#4ade80" opacity="0.9"/>
    <circle cx="600" cy="940" r="4" fill="#4ade80" opacity="0.9"/>
    <circle cx="600" cy="980" r="4" fill="#4ade80" opacity="0.9"/>
    <circle cx="600" cy="1020" r="7" fill="#c084fc" opacity="0.9"/>
    <circle cx="240" cy="1060" r="4" fill="#4ade80" opacity="0.9"/>
    <circle cx="600" cy="1140" r="6" fill="#fb923c" opacity="0.9"/>
    <circle cx="600" cy="1180" r="4" fill="#4ade80" opacity="0.9"/>
    <circle cx="600" cy="1220" r="4" fill="#4ade80" opacity="0.9"/>
    <circle cx="600" cy="1260" r="7" fill="#c084fc" opacity="0.9"/>
    <circle cx="600" cy="1300" r="4" fill="#4ade80" opacity="0.9"/>
    <circle cx="1080" cy="1340" r="4" fill="#4ade80" opacity="0.9"/>
    <circle cx="600" cy="1420" r="6" fill="#fb923c" opacity="0.9"/>
    <circle cx="600" cy="1460" r="4" fill="#4ade80" opacity="0.9"/>
    <circle cx="600" cy="1500" r="4" fill="#4ade80" opacity="0.9"/>
    <circle cx="600" cy="1540" r="4" fill="#4ade80" opacity="0.9"/>
    <circle cx="600" cy="1580" r="4" fill="#4ade80" opacity="0.9"/>
    <circle cx="600" cy="1620" r="4" fill="#4ade80" opacity="0.9"/>
    <circle cx="600" cy="1660" r="4" fill="#4ade80" opacity="0.9"/>
    <circle cx="600" cy="1700" r="4" fill="#38bdf8" opacity="0.9"/>
    <circle cx="600" cy="1740" r="4" fill="#4ade80" opacity="0.9"/>
  </g>
</svg>
