<?xml version="1.0" encoding="UTF-8"?>
<svg xmlns="http://www.w3.org/2000/svg" 
     xmlns:xlink="http://www.w3.org/1999/xlink"
     width="1360" height="2180" 
     viewBox="0 0 1360 2180">
  <defs>
    <radialGradient id="leafGradient">
      <stop offset="0%" style="stop-color:#22c55e;stop-opacity:1" />
      <stop offset="100%" style="stop-color:#16a34a;stop-opacity:0.8" />
    </radialGradient>
    <radialGradient id="mergeGradient">
      <stop offset="0%" style="stop-color:#a78bfa;stop-opacity:1" />
      <stop offset="100%" style="stop-color:#7c3aed;stop-opacity:0.8" />
    </radialGradient>
    <radialGradient id="forkGradient">
      <stop offset="0%" style="stop-color:#fb923c;stop-opacity:1" />
      <stop offset="100%" style="stop-color:#ea580c;stop-opacity:0.8" />
    </radialGradient>
    <radialGradient id="tagGradient">
      <stop offset="0%" style="stop-color:#38bdf8;stop-opacity:1" />
      <stop offset="100%" style="stop-color:#0284c7;stop-opacity:0.8" />
    </radialGradient>
    <style>
      .branch-line { stroke: #64748b; stroke-width: 2; fill: none; opacity: 0.7; }
      .trunk-line { stroke: #22c55e; stroke-width: 2.5; fill: none; opacity: 0.6; }
      .commit-leaf { cursor: pointer; }
      .commit-leaf:hover { filter: brightness(1.5); }
      .branch-label { font-family: sans-serif; font-size: 12px; font-weight: bold; fill: #0f172a; }
    </style>
  </defs>
  
  <rect width="1360" height="2180" fill="#f8fafc"/>
  <defs>
    <pattern id="grid" width="100" height="100" patternUnits="userSpaceOnUse">
      <path d="M 100 0 L 0 0 0 100" fill="none" stroke="#e2e8f0" stroke-width="0.5" opacity="0.3"/>
    </pattern>
  </defs>
  <rect width="1360" height="2180" fill="url(#grid)"/>
  
  <!-- Branch connection lines -->
  <g id="branches">
    <line class="trunk-line" x1="600" y1="60" x2="600" y2="100"/>
    <line class="trunk-line" x1="600" y1="100" x2="600" y2="140"/>
    <line class="trunk-line" x1="600" y1="140" x2="600" y2="180"/>
    <path class="branch-line" d="M 600 140 C 600 172, 720 188, 720 220"/>
    <line class="trunk-line" x1="600" y1="180" x2="600" y2="300"/>
    <path class="branch-line" d="M 720 220 C 720 252, 600 268, 600 300"/>
    <line class="trunk-line" x1="600" y1="300" x2="600" y2="340"/>
    <line class="trunk-line" x1="600" y1="340" x2="600" y2="380"/>
    <line class="trunk-line" x1="600" y1="380" x2="600" y2="420"/>
    <path class="branch-line" d="M 600 380 C 600 412, 480 428, 480 460"/>
    <line class="trunk-line" x1="600" y1="420" x2="600" y2="540"/>
    <path class="branch-line" d="M 480 460 C 480 492, 600 508, 600 540"/>
    <line class="trunk-line" x1="600" y1="540" x2="600" y2="580"/>
    <line class="trunk-line" x1="600" y1="580" x2="600" y2="620"/>
    <line class="trunk-line" x1="600" y1="620" x2="600" y2="740"/>
    <path class="branch-line" d="M 600 620 C 600 636, 840 644, 840 660"/>
    <path class="branch-line" d="M 840 660 C 840 692, 600 708, 600 740"/>
    <line class="trunk-line" x1="600" y1="740" x2="600" y2="780"/>
    <line class="trunk-line" x1="600" y1="780" x2="600" y2="820"/>
    <path class="branch-line" d="M 600 780 C 600 812, 360 828, 360 860"/>
    <line class="trunk-line" x1="600" y1="820" x2="600" y2="940"/>
    <path class="branch-line" d="M 360 860 C 360 892, 600 908, 600 940"/>
    <line class="trunk-line" x1="600" y1="940" x2="600" y2="1060"/>
    <path class="branch-line" d="M 600 940 C 600 956, 960 964, 960 980"/>
    <path class="branch-line" d="M 960 980 C 960 1012, 600 1028, 600 1060"/>
    <line class="trunk-line" x1="600" y1="1060" x2="600" y2="1180"/>
    <path class="branch-line" d="M 600 1060 C 600 1076, 240 1084, 240 1100"/>
    <path class="branch-line" d="M 240 1100 C 240 1132, 600 1148, 600 1180"/>
    <line class="trunk-line" x1="600" y1="1180" x2="600" y2="1220"/>
    <line class="trunk-line" x1="600" y1="1220" x2="600" y2="1260"/>
    <line class="trunk-line" x1="600" y1="1260" x2="600" y2="1300"/>
    <line class="trunk-line" x1="600" y1="1300" x2="600" y2="1340"/>
    <line class="trunk-line" x1="600" y1="1340" x2="600" y2="1460"/>
    <path class="branch-line" d="M 600 1340 C 600 1356, 1080 1364, 1080 1380"/>
    <path class="branch-line" d="M 1080 1380 C 1080 1412, 600 1428, 600 1460"/>
    <line class="trunk-line" x1="600" y1="1460" x2="600" y2="1500"/>
    <line class="trunk-line" x1="600" y1="1500" x2="600" y2="1540"/>
    <line class="trunk-line" x1="600" y1="1540" x2="600" y2="1580"/>
    <line class="trunk-line" x1="600" y1="1580" x2="600" y2="1620"/>
    <path class="branch-line" d="M 600 1580 C 600 1612, 120 1628, 120 1660"/>
    <line class="trunk-line" x1="600" y1="1620" x2="600" y2="1740"/>
    <path class="branch-line" d="M 120 1660 C 120 1692, 600 1708, 600 1740"/>
    <line class="trunk-line" x1="600" y1="1740" x2="600" y2="1780"/>
    <line class="trunk-line" x1="600" y1="1780" x2="600" y2="1820"/>
    <line class="trunk-line" x1="600" y1="1820" x2="600" y2="1860"/>
    <line class="trunk-line" x1="600" y1="1860" x2="600" y2="1900"/>
    <line class="trunk-line" x1="600" y1="1900" x2="600" y2="1940"/>
    <line class="trunk-line" x1="600" y1="1940" x2="600" y2="1980"/>
    <line class="trunk-line" x1="600" y1="1980" x2="600" y2="2020"/>
    <line class="trunk-line" x1="600" y1="2020" x2="600" y2="2060"/>
  </g>
  <!-- Commit nodes -->
  <g id="commits">
    <circle class="commit-leaf" cx="600" cy="60" r="6" fill="url(#leafGradient)" stroke="#16a34a" stroke-width="1.5"><title>1fe3b92: chore: update 1 submodule(s) to latest</title></circle>
    <circle class="commit-leaf" cx="600" cy="100" r="6" fill="url(#leafGradient)" stroke="#16a34a" stroke-width="1.5"><title>b0700bf: chore: update git tree visualisation</title></circle>
    <circle class="commit-leaf" cx="600" cy="140" r="10" fill="url(#mergeGradient)" stroke="#7c3aed" stroke-width="1.5"><title>2599fa8: Merge pull request #8 from XAOSTECH:chore/update-submodules-20260601-045139</title></circle>
    <circle class="commit-leaf" cx="600" cy="180" r="6" fill="url(#leafGradient)" stroke="#16a34a" stroke-width="1.5"><title>5841d35: chore: update git tree visualisation</title></circle>
    <circle class="commit-leaf" cx="720" cy="220" r="6" fill="url(#leafGradient)" stroke="#16a34a" stroke-width="1.5"><title>ca135f6: chore: update 1 submodule(s) to latest</title></circle>
    <circle class="commit-leaf" cx="600" cy="300" r="9" fill="url(#forkGradient)" stroke="#ea580c" stroke-width="1.5"><title>9ba65d9: chore: update CHANGELOG for v0.1.1</title></circle>
    <circle class="commit-leaf" cx="600" cy="340" r="6" fill="url(#leafGradient)" stroke="#16a34a" stroke-width="1.5"><title>c78eb6e: chore: update git tree visualisation</title></circle>
    <circle class="commit-leaf" cx="600" cy="380" r="10" fill="url(#mergeGradient)" stroke="#7c3aed" stroke-width="1.5"><title>aedd827: Merge pull request #7 from XAOSTECH:chore/update-submodules-20260511-040242</title></circle>
    <circle class="commit-leaf" cx="600" cy="420" r="6" fill="url(#leafGradient)" stroke="#16a34a" stroke-width="1.5"><title>801f48e: chore: update git tree visualisation</title></circle>
    <circle class="commit-leaf" cx="480" cy="460" r="6" fill="url(#leafGradient)" stroke="#16a34a" stroke-width="1.5"><title>36dabe4: chore: update 2 submodule(s) to latest</title></circle>
    <circle class="commit-leaf" cx="600" cy="540" r="9" fill="url(#forkGradient)" stroke="#ea580c" stroke-width="1.5"><title>2d6f1a0: chore: update git tree visualisation</title></circle>
    <circle class="commit-leaf" cx="600" cy="580" r="6" fill="url(#leafGradient)" stroke="#16a34a" stroke-width="1.5"><title>75c4cd3: chore: update CHANGELOG for v0.1.0 (re-release)</title></circle>
    <circle class="commit-leaf" cx="600" cy="620" r="10" fill="url(#mergeGradient)" stroke="#7c3aed" stroke-width="1.5"><title>69eba48: Merge pull request #6 from XAOSTECH:chore/update-submodules-20260420-033219</title></circle>
    <circle class="commit-leaf" cx="840" cy="660" r="6" fill="url(#leafGradient)" stroke="#16a34a" stroke-width="1.5"><title>25170bd: chore: update 1 submodule(s) to latest</title></circle>
    <circle class="commit-leaf" cx="600" cy="740" r="9" fill="url(#forkGradient)" stroke="#ea580c" stroke-width="1.5"><title>1fc9358: chore: update git tree visualisation</title></circle>
    <circle class="commit-leaf" cx="600" cy="780" r="10" fill="url(#mergeGradient)" stroke="#7c3aed" stroke-width="1.5"><title>64b5ad9: Merge pull request #5 from XAOSTECH:chore/update-submodules-20260406-032120</title></circle>
    <circle class="commit-leaf" cx="600" cy="820" r="6" fill="url(#leafGradient)" stroke="#16a34a" stroke-width="1.5"><title>be810bf: chore: update CHANGELOG for v0.1.0 (re-release)</title></circle>
    <circle class="commit-leaf" cx="360" cy="860" r="6" fill="url(#leafGradient)" stroke="#16a34a" stroke-width="1.5"><title>f75b2d7: chore: update 1 submodule(s) to latest</title></circle>
    <circle class="commit-leaf" cx="600" cy="940" r="10" fill="url(#mergeGradient)" stroke="#7c3aed" stroke-width="1.5"><title>192a282: Merge pull request #4 from XAOSTECH:anglicise/20260401-021212</title></circle>
    <circle class="commit-leaf" cx="960" cy="980" r="6" fill="url(#leafGradient)" stroke="#16a34a" stroke-width="1.5"><title>a422b39: chore: convert American spellings to British English</title></circle>
    <circle class="commit-leaf" cx="600" cy="1060" r="10" fill="url(#mergeGradient)" stroke="#7c3aed" stroke-width="1.5"><title>afc97fc: Merge pull request #3 from XAOSTECH:chore/update-submodules-20260330-031919</title></circle>
    <circle class="commit-leaf" cx="240" cy="1100" r="6" fill="url(#leafGradient)" stroke="#16a34a" stroke-width="1.5"><title>40a2495: chore: update 1 submodule(s) to latest</title></circle>
    <circle class="commit-leaf" cx="600" cy="1180" r="9" fill="url(#forkGradient)" stroke="#ea580c" stroke-width="1.5"><title>7926d8e: chore(dc-init): load workflows,actions</title></circle>
    <circle class="commit-leaf" cx="600" cy="1220" r="6" fill="url(#leafGradient)" stroke="#16a34a" stroke-width="1.5"><title>c93967b: chore: update git tree visualisation</title></circle>
    <circle class="commit-leaf" cx="600" cy="1260" r="6" fill="url(#leafGradient)" stroke="#16a34a" stroke-width="1.5"><title>1082cbe: chore: update git tree visualisation</title></circle>
    <circle class="commit-leaf" cx="600" cy="1300" r="6" fill="url(#leafGradient)" stroke="#16a34a" stroke-width="1.5"><title>958dc12: chore: update CHANGELOG for v0.1.0</title></circle>
    <circle class="commit-leaf" cx="600" cy="1340" r="10" fill="url(#mergeGradient)" stroke="#7c3aed" stroke-width="1.5"><title>e1f6b8e: Merge pull request #2 from XAOSTECH:chore/update-submodules-20260321-204419</title></circle>
    <circle class="commit-leaf" cx="1080" cy="1380" r="6" fill="url(#leafGradient)" stroke="#16a34a" stroke-width="1.5"><title>f0fb49f: chore: update 1 submodule(s) to latest</title></circle>
    <circle class="commit-leaf" cx="600" cy="1460" r="9" fill="url(#forkGradient)" stroke="#ea580c" stroke-width="1.5"><title>54e9327: chore(dc-init): update workflows + pin design-flows</title></circle>
    <circle class="commit-leaf" cx="600" cy="1500" r="6" fill="url(#leafGradient)" stroke="#16a34a" stroke-width="1.5"><title>4c66e66: chore: vsGen + pin design-flows</title></circle>
    <circle class="commit-leaf" cx="600" cy="1540" r="6" fill="url(#leafGradient)" stroke="#16a34a" stroke-width="1.5"><title>f30f18c: chore: update git tree visualisation</title></circle>
    <circle class="commit-leaf" cx="600" cy="1580" r="10" fill="url(#mergeGradient)" stroke="#7c3aed" stroke-width="1.5"><title>3a417b7: Merge pull request #1 from XAOSTECH:chore/update-submodules-20260321-190402</title></circle>
    <circle class="commit-leaf" cx="600" cy="1620" r="6" fill="url(#leafGradient)" stroke="#16a34a" stroke-width="1.5"><title>d898ec6: chore: update git tree visualisation</title></circle>
    <circle class="commit-leaf" cx="120" cy="1660" r="6" fill="url(#leafGradient)" stroke="#16a34a" stroke-width="1.5"><title>152772c: chore: update 1 submodule(s) to latest</title></circle>
    <circle class="commit-leaf" cx="600" cy="1740" r="9" fill="url(#forkGradient)" stroke="#ea580c" stroke-width="1.5"><title>5e9aa68: chore(dc-contain): update container config</title></circle>
    <circle class="commit-leaf" cx="600" cy="1780" r="6" fill="url(#leafGradient)" stroke="#16a34a" stroke-width="1.5"><title>b94d829: chore(dc-init): update workflows + action</title></circle>
    <circle class="commit-leaf" cx="600" cy="1820" r="6" fill="url(#leafGradient)" stroke="#16a34a" stroke-width="1.5"><title>e449e77: chore: add pastel as submodule</title></circle>
    <circle class="commit-leaf" cx="600" cy="1860" r="6" fill="url(#leafGradient)" stroke="#16a34a" stroke-width="1.5"><title>cc380cc: chore: update design-flows with export flag feature</title></circle>
    <circle class="commit-leaf" cx="600" cy="1900" r="6" fill="url(#leafGradient)" stroke="#16a34a" stroke-width="1.5"><title>e9718ed: chore: update submodules</title></circle>
    <circle class="commit-leaf" cx="600" cy="1940" r="6" fill="url(#leafGradient)" stroke="#16a34a" stroke-width="1.5"><title>aec4ec1: chore: README</title></circle>
    <circle class="commit-leaf" cx="600" cy="1980" r="6" fill="url(#leafGradient)" stroke="#16a34a" stroke-width="1.5"><title>cbd50ce: fix(dc-modules): submodule refs</title></circle>
    <circle class="commit-leaf" cx="600" cy="2020" r="6" fill="url(#tagGradient)" stroke="#0284c7" stroke-width="1.5"><title>c3b6948: chore: update CHANGELOG for v0.0.1</title></circle>
    <circle class="commit-leaf" cx="600" cy="2060" r="6" fill="url(#leafGradient)" stroke="#16a34a" stroke-width="1.5"><title>36f7d0e: init + dc-init</title></circle>
  </g>
  
  <!-- Legend -->
  <g id="legend" transform="translate(20, 20)">
    <rect width="200" height="110" fill="white" stroke="#cbd5e1" stroke-width="1" rx="4"/>
    <circle cx="20" cy="25" r="5" fill="url(#leafGradient)" stroke="#16a34a"/>
    <text x="32" y="30" class="branch-label" font-size="12">Regular Commit</text>
    <circle cx="20" cy="50" r="6" fill="url(#mergeGradient)" stroke="#7c3aed"/>
    <text x="32" y="55" class="branch-label" font-size="12">Merge Commit</text>
    <circle cx="20" cy="75" r="6" fill="url(#forkGradient)" stroke="#ea580c"/>
    <text x="32" y="80" class="branch-label" font-size="12">Fork Point</text>
    <circle cx="20" cy="100" r="6" fill="url(#tagGradient)" stroke="#0284c7"/>
    <text x="32" y="105" class="branch-label" font-size="12">Tagged</text>
  </g>
  
  <!-- Repository info -->
  <g id="info" transform="translate(20, 2140)">
    <text x="0" y="0" class="branch-label" font-size="12" fill="#666">
      Repository: design-tools
    </text>
    <text x="0" y="20" class="branch-label" font-size="10" fill="#999">
      Generated: 2026-06-15 05:02:46 UTC
    </text>
  </g>
</svg>
